<mxfile host="app.diagrams.net" modified="2020-08-01T02:44:01.155Z" agent="5.0 (Macintosh; Intel Mac OS X 10_15_5) AppleWebKit/537.36 (KHTML, like Gecko) Chrome/83.0.4103.116 Safari/537.36" etag="2TiHrBqMYLdklSpuJBZu" version="13.0.1" type="github">
  <diagram id="l3T9q4KYv9oL9oxo4qhX" name="ページ1">
    <mxGraphModel dx="1426" dy="771" grid="1" gridSize="15" guides="1" tooltips="1" connect="1" arrows="1" fold="1" page="1" pageScale="1" pageWidth="827" pageHeight="1169" math="0" shadow="0">
      <root>
        <mxCell id="0" />
        <mxCell id="1" parent="0" />
        <mxCell id="g-PdDLhLTCe8zfPFN-K6-1" value="User" style="swimlane;fontStyle=0;childLayout=stackLayout;horizontal=1;startSize=26;horizontalStack=0;resizeParent=1;resizeParentMax=0;resizeLast=0;collapsible=1;marginBottom=0;align=center;fontSize=14;" parent="1" vertex="1">
          <mxGeometry x="309" y="75" width="210" height="138" as="geometry" />
        </mxCell>
        <mxCell id="g-PdDLhLTCe8zfPFN-K6-2" value="id" style="shape=partialRectangle;top=0;left=0;right=0;bottom=1;align=left;verticalAlign=middle;fillColor=none;spacingLeft=34;spacingRight=4;overflow=hidden;rotatable=0;points=[[0,0.5],[1,0.5]];portConstraint=eastwest;dropTarget=0;fontStyle=5;fontSize=12;" parent="g-PdDLhLTCe8zfPFN-K6-1" vertex="1">
          <mxGeometry y="26" width="210" height="30" as="geometry" />
        </mxCell>
        <mxCell id="g-PdDLhLTCe8zfPFN-K6-3" value="PK" style="shape=partialRectangle;top=0;left=0;bottom=0;fillColor=none;align=left;verticalAlign=middle;spacingLeft=4;spacingRight=4;overflow=hidden;rotatable=0;points=[];portConstraint=eastwest;part=1;fontSize=12;" parent="g-PdDLhLTCe8zfPFN-K6-2" vertex="1" connectable="0">
          <mxGeometry width="30" height="30" as="geometry" />
        </mxCell>
        <mxCell id="g-PdDLhLTCe8zfPFN-K6-4" value="name&#xa;" style="shape=partialRectangle;top=0;left=0;right=0;bottom=0;align=left;verticalAlign=top;fillColor=none;spacingLeft=34;spacingRight=4;overflow=hidden;rotatable=0;points=[[0,0.5],[1,0.5]];portConstraint=eastwest;dropTarget=0;fontSize=12;" parent="g-PdDLhLTCe8zfPFN-K6-1" vertex="1">
          <mxGeometry y="56" width="210" height="26" as="geometry" />
        </mxCell>
        <mxCell id="g-PdDLhLTCe8zfPFN-K6-5" value="" style="shape=partialRectangle;top=0;left=0;bottom=0;fillColor=none;align=left;verticalAlign=top;spacingLeft=4;spacingRight=4;overflow=hidden;rotatable=0;points=[];portConstraint=eastwest;part=1;fontSize=12;" parent="g-PdDLhLTCe8zfPFN-K6-4" vertex="1" connectable="0">
          <mxGeometry width="30" height="26" as="geometry" />
        </mxCell>
        <mxCell id="g-PdDLhLTCe8zfPFN-K6-6" value="email&#xa;" style="shape=partialRectangle;top=0;left=0;right=0;bottom=0;align=left;verticalAlign=top;fillColor=none;spacingLeft=34;spacingRight=4;overflow=hidden;rotatable=0;points=[[0,0.5],[1,0.5]];portConstraint=eastwest;dropTarget=0;fontSize=12;" parent="g-PdDLhLTCe8zfPFN-K6-1" vertex="1">
          <mxGeometry y="82" width="210" height="26" as="geometry" />
        </mxCell>
        <mxCell id="g-PdDLhLTCe8zfPFN-K6-7" value="" style="shape=partialRectangle;top=0;left=0;bottom=0;fillColor=none;align=left;verticalAlign=top;spacingLeft=4;spacingRight=4;overflow=hidden;rotatable=0;points=[];portConstraint=eastwest;part=1;fontSize=12;" parent="g-PdDLhLTCe8zfPFN-K6-6" vertex="1" connectable="0">
          <mxGeometry width="30" height="26" as="geometry" />
        </mxCell>
        <mxCell id="g-PdDLhLTCe8zfPFN-K6-8" value="password" style="shape=partialRectangle;top=0;left=0;right=0;bottom=0;align=left;verticalAlign=top;fillColor=none;spacingLeft=34;spacingRight=4;overflow=hidden;rotatable=0;points=[[0,0.5],[1,0.5]];portConstraint=eastwest;dropTarget=0;fontSize=12;" parent="g-PdDLhLTCe8zfPFN-K6-1" vertex="1">
          <mxGeometry y="108" width="210" height="26" as="geometry" />
        </mxCell>
        <mxCell id="g-PdDLhLTCe8zfPFN-K6-9" value="" style="shape=partialRectangle;top=0;left=0;bottom=0;fillColor=none;align=left;verticalAlign=top;spacingLeft=4;spacingRight=4;overflow=hidden;rotatable=0;points=[];portConstraint=eastwest;part=1;fontSize=12;" parent="g-PdDLhLTCe8zfPFN-K6-8" vertex="1" connectable="0">
          <mxGeometry width="30" height="26" as="geometry" />
        </mxCell>
        <mxCell id="g-PdDLhLTCe8zfPFN-K6-10" value="" style="shape=partialRectangle;top=0;left=0;right=0;bottom=0;align=left;verticalAlign=top;fillColor=none;spacingLeft=34;spacingRight=4;overflow=hidden;rotatable=0;points=[[0,0.5],[1,0.5]];portConstraint=eastwest;dropTarget=0;fontSize=12;" parent="g-PdDLhLTCe8zfPFN-K6-1" vertex="1">
          <mxGeometry y="134" width="210" height="4" as="geometry" />
        </mxCell>
        <mxCell id="g-PdDLhLTCe8zfPFN-K6-11" value="" style="shape=partialRectangle;top=0;left=0;bottom=0;fillColor=none;align=left;verticalAlign=top;spacingLeft=4;spacingRight=4;overflow=hidden;rotatable=0;points=[];portConstraint=eastwest;part=1;fontSize=12;" parent="g-PdDLhLTCe8zfPFN-K6-10" vertex="1" connectable="0">
          <mxGeometry width="30" height="4" as="geometry" />
        </mxCell>
        <mxCell id="QIGW-eZ6DJEo7gAFJ_Yn-3" value="Income" style="swimlane;fontStyle=0;childLayout=stackLayout;horizontal=1;startSize=26;horizontalStack=0;resizeParent=1;resizeParentMax=0;resizeLast=0;collapsible=1;marginBottom=0;align=center;fontSize=14;" vertex="1" parent="1">
          <mxGeometry x="109" y="270" width="200" height="144" as="geometry" />
        </mxCell>
        <mxCell id="QIGW-eZ6DJEo7gAFJ_Yn-4" value="id" style="shape=partialRectangle;top=0;left=0;right=0;bottom=1;align=left;verticalAlign=middle;fillColor=none;spacingLeft=34;spacingRight=4;overflow=hidden;rotatable=0;points=[[0,0.5],[1,0.5]];portConstraint=eastwest;dropTarget=0;fontStyle=5;fontSize=12;" vertex="1" parent="QIGW-eZ6DJEo7gAFJ_Yn-3">
          <mxGeometry y="26" width="200" height="30" as="geometry" />
        </mxCell>
        <mxCell id="QIGW-eZ6DJEo7gAFJ_Yn-5" value="PK" style="shape=partialRectangle;top=0;left=0;bottom=0;fillColor=none;align=left;verticalAlign=middle;spacingLeft=4;spacingRight=4;overflow=hidden;rotatable=0;points=[];portConstraint=eastwest;part=1;fontSize=12;" vertex="1" connectable="0" parent="QIGW-eZ6DJEo7gAFJ_Yn-4">
          <mxGeometry width="30" height="30" as="geometry" />
        </mxCell>
        <mxCell id="QIGW-eZ6DJEo7gAFJ_Yn-6" value="row 1" style="shape=partialRectangle;top=0;left=0;right=0;bottom=0;align=left;verticalAlign=top;fillColor=none;spacingLeft=34;spacingRight=4;overflow=hidden;rotatable=0;points=[[0,0.5],[1,0.5]];portConstraint=eastwest;dropTarget=0;fontSize=12;" vertex="1" parent="QIGW-eZ6DJEo7gAFJ_Yn-3">
          <mxGeometry y="56" width="200" height="26" as="geometry" />
        </mxCell>
        <mxCell id="QIGW-eZ6DJEo7gAFJ_Yn-7" value="" style="shape=partialRectangle;top=0;left=0;bottom=0;fillColor=none;align=left;verticalAlign=top;spacingLeft=4;spacingRight=4;overflow=hidden;rotatable=0;points=[];portConstraint=eastwest;part=1;fontSize=12;" vertex="1" connectable="0" parent="QIGW-eZ6DJEo7gAFJ_Yn-6">
          <mxGeometry width="30" height="26" as="geometry" />
        </mxCell>
        <mxCell id="QIGW-eZ6DJEo7gAFJ_Yn-8" value="row 2" style="shape=partialRectangle;top=0;left=0;right=0;bottom=0;align=left;verticalAlign=top;fillColor=none;spacingLeft=34;spacingRight=4;overflow=hidden;rotatable=0;points=[[0,0.5],[1,0.5]];portConstraint=eastwest;dropTarget=0;fontSize=12;" vertex="1" parent="QIGW-eZ6DJEo7gAFJ_Yn-3">
          <mxGeometry y="82" width="200" height="26" as="geometry" />
        </mxCell>
        <mxCell id="QIGW-eZ6DJEo7gAFJ_Yn-9" value="" style="shape=partialRectangle;top=0;left=0;bottom=0;fillColor=none;align=left;verticalAlign=top;spacingLeft=4;spacingRight=4;overflow=hidden;rotatable=0;points=[];portConstraint=eastwest;part=1;fontSize=12;" vertex="1" connectable="0" parent="QIGW-eZ6DJEo7gAFJ_Yn-8">
          <mxGeometry width="30" height="26" as="geometry" />
        </mxCell>
        <mxCell id="QIGW-eZ6DJEo7gAFJ_Yn-10" value="row 3" style="shape=partialRectangle;top=0;left=0;right=0;bottom=0;align=left;verticalAlign=top;fillColor=none;spacingLeft=34;spacingRight=4;overflow=hidden;rotatable=0;points=[[0,0.5],[1,0.5]];portConstraint=eastwest;dropTarget=0;fontSize=12;" vertex="1" parent="QIGW-eZ6DJEo7gAFJ_Yn-3">
          <mxGeometry y="108" width="200" height="26" as="geometry" />
        </mxCell>
        <mxCell id="QIGW-eZ6DJEo7gAFJ_Yn-11" value="" style="shape=partialRectangle;top=0;left=0;bottom=0;fillColor=none;align=left;verticalAlign=top;spacingLeft=4;spacingRight=4;overflow=hidden;rotatable=0;points=[];portConstraint=eastwest;part=1;fontSize=12;" vertex="1" connectable="0" parent="QIGW-eZ6DJEo7gAFJ_Yn-10">
          <mxGeometry width="30" height="26" as="geometry" />
        </mxCell>
        <mxCell id="QIGW-eZ6DJEo7gAFJ_Yn-12" value="" style="shape=partialRectangle;top=0;left=0;right=0;bottom=0;align=left;verticalAlign=top;fillColor=none;spacingLeft=34;spacingRight=4;overflow=hidden;rotatable=0;points=[[0,0.5],[1,0.5]];portConstraint=eastwest;dropTarget=0;fontSize=12;" vertex="1" parent="QIGW-eZ6DJEo7gAFJ_Yn-3">
          <mxGeometry y="134" width="200" height="10" as="geometry" />
        </mxCell>
        <mxCell id="QIGW-eZ6DJEo7gAFJ_Yn-13" value="" style="shape=partialRectangle;top=0;left=0;bottom=0;fillColor=none;align=left;verticalAlign=top;spacingLeft=4;spacingRight=4;overflow=hidden;rotatable=0;points=[];portConstraint=eastwest;part=1;fontSize=12;" vertex="1" connectable="0" parent="QIGW-eZ6DJEo7gAFJ_Yn-12">
          <mxGeometry width="30" height="10" as="geometry" />
        </mxCell>
        <mxCell id="QIGW-eZ6DJEo7gAFJ_Yn-14" value="Expense" style="swimlane;fontStyle=0;childLayout=stackLayout;horizontal=1;startSize=26;horizontalStack=0;resizeParent=1;resizeParentMax=0;resizeLast=0;collapsible=1;marginBottom=0;align=center;fontSize=14;" vertex="1" parent="1">
          <mxGeometry x="525" y="270" width="225" height="144" as="geometry" />
        </mxCell>
        <mxCell id="QIGW-eZ6DJEo7gAFJ_Yn-15" value="id" style="shape=partialRectangle;top=0;left=0;right=0;bottom=1;align=left;verticalAlign=middle;fillColor=none;spacingLeft=34;spacingRight=4;overflow=hidden;rotatable=0;points=[[0,0.5],[1,0.5]];portConstraint=eastwest;dropTarget=0;fontStyle=5;fontSize=12;" vertex="1" parent="QIGW-eZ6DJEo7gAFJ_Yn-14">
          <mxGeometry y="26" width="225" height="30" as="geometry" />
        </mxCell>
        <mxCell id="QIGW-eZ6DJEo7gAFJ_Yn-16" value="PK" style="shape=partialRectangle;top=0;left=0;bottom=0;fillColor=none;align=left;verticalAlign=middle;spacingLeft=4;spacingRight=4;overflow=hidden;rotatable=0;points=[];portConstraint=eastwest;part=1;fontSize=12;" vertex="1" connectable="0" parent="QIGW-eZ6DJEo7gAFJ_Yn-15">
          <mxGeometry width="30" height="30" as="geometry" />
        </mxCell>
        <mxCell id="QIGW-eZ6DJEo7gAFJ_Yn-17" value="row 1" style="shape=partialRectangle;top=0;left=0;right=0;bottom=0;align=left;verticalAlign=top;fillColor=none;spacingLeft=34;spacingRight=4;overflow=hidden;rotatable=0;points=[[0,0.5],[1,0.5]];portConstraint=eastwest;dropTarget=0;fontSize=12;" vertex="1" parent="QIGW-eZ6DJEo7gAFJ_Yn-14">
          <mxGeometry y="56" width="225" height="26" as="geometry" />
        </mxCell>
        <mxCell id="QIGW-eZ6DJEo7gAFJ_Yn-18" value="" style="shape=partialRectangle;top=0;left=0;bottom=0;fillColor=none;align=left;verticalAlign=top;spacingLeft=4;spacingRight=4;overflow=hidden;rotatable=0;points=[];portConstraint=eastwest;part=1;fontSize=12;" vertex="1" connectable="0" parent="QIGW-eZ6DJEo7gAFJ_Yn-17">
          <mxGeometry width="30" height="26" as="geometry" />
        </mxCell>
        <mxCell id="QIGW-eZ6DJEo7gAFJ_Yn-19" value="row 2" style="shape=partialRectangle;top=0;left=0;right=0;bottom=0;align=left;verticalAlign=top;fillColor=none;spacingLeft=34;spacingRight=4;overflow=hidden;rotatable=0;points=[[0,0.5],[1,0.5]];portConstraint=eastwest;dropTarget=0;fontSize=12;" vertex="1" parent="QIGW-eZ6DJEo7gAFJ_Yn-14">
          <mxGeometry y="82" width="225" height="26" as="geometry" />
        </mxCell>
        <mxCell id="QIGW-eZ6DJEo7gAFJ_Yn-20" value="" style="shape=partialRectangle;top=0;left=0;bottom=0;fillColor=none;align=left;verticalAlign=top;spacingLeft=4;spacingRight=4;overflow=hidden;rotatable=0;points=[];portConstraint=eastwest;part=1;fontSize=12;" vertex="1" connectable="0" parent="QIGW-eZ6DJEo7gAFJ_Yn-19">
          <mxGeometry width="30" height="26" as="geometry" />
        </mxCell>
        <mxCell id="QIGW-eZ6DJEo7gAFJ_Yn-21" value="row 3" style="shape=partialRectangle;top=0;left=0;right=0;bottom=0;align=left;verticalAlign=top;fillColor=none;spacingLeft=34;spacingRight=4;overflow=hidden;rotatable=0;points=[[0,0.5],[1,0.5]];portConstraint=eastwest;dropTarget=0;fontSize=12;" vertex="1" parent="QIGW-eZ6DJEo7gAFJ_Yn-14">
          <mxGeometry y="108" width="225" height="26" as="geometry" />
        </mxCell>
        <mxCell id="QIGW-eZ6DJEo7gAFJ_Yn-22" value="" style="shape=partialRectangle;top=0;left=0;bottom=0;fillColor=none;align=left;verticalAlign=top;spacingLeft=4;spacingRight=4;overflow=hidden;rotatable=0;points=[];portConstraint=eastwest;part=1;fontSize=12;" vertex="1" connectable="0" parent="QIGW-eZ6DJEo7gAFJ_Yn-21">
          <mxGeometry width="30" height="26" as="geometry" />
        </mxCell>
        <mxCell id="QIGW-eZ6DJEo7gAFJ_Yn-23" value="" style="shape=partialRectangle;top=0;left=0;right=0;bottom=0;align=left;verticalAlign=top;fillColor=none;spacingLeft=34;spacingRight=4;overflow=hidden;rotatable=0;points=[[0,0.5],[1,0.5]];portConstraint=eastwest;dropTarget=0;fontSize=12;" vertex="1" parent="QIGW-eZ6DJEo7gAFJ_Yn-14">
          <mxGeometry y="134" width="225" height="10" as="geometry" />
        </mxCell>
        <mxCell id="QIGW-eZ6DJEo7gAFJ_Yn-24" value="" style="shape=partialRectangle;top=0;left=0;bottom=0;fillColor=none;align=left;verticalAlign=top;spacingLeft=4;spacingRight=4;overflow=hidden;rotatable=0;points=[];portConstraint=eastwest;part=1;fontSize=12;" vertex="1" connectable="0" parent="QIGW-eZ6DJEo7gAFJ_Yn-23">
          <mxGeometry width="30" height="10" as="geometry" />
        </mxCell>
      </root>
    </mxGraphModel>
  </diagram>
</mxfile>
